<?xml version="1.0" standalone="no"?>
<!DOCTYPE svg PUBLIC "-//W3C//DTD SVG 20010904//EN"
 "http://www.w3.org/TR/2001/REC-SVG-20010904/DTD/svg10.dtd">
<svg version="1.0" xmlns="http://www.w3.org/2000/svg"
 width="1366.000000pt" height="768.000000pt" viewBox="0 0 1366.000000 768.000000"
 preserveAspectRatio="xMidYMid meet">

<g transform="translate(0.000000,768.000000) scale(0.100000,-0.100000)"
fill="#000000" stroke="none">
<path d="M3002 7049 c-5 -13 -31 -96 -58 -184 -26 -88 -58 -176 -71 -195 -63
-95 -350 -376 -550 -537 -205 -166 -362 -261 -498 -302 -179 -53 -276 -176
-276 -350 0 -134 46 -233 144 -312 124 -100 176 -100 278 -3 109 106 220 134
523 134 232 0 258 7 346 93 70 67 138 107 186 107 66 0 124 -68 124 -144 0
-103 -102 -273 -268 -448 -85 -89 -196 -168 -372 -262 -212 -115 -404 -272
-521 -426 -73 -97 -138 -219 -160 -301 l-12 -45 -136 48 c-75 26 -161 61 -191
76 -423 221 -509 251 -622 218 -72 -21 -121 -64 -158 -139 -54 -111 -55 -136
-26 -508 37 -471 37 -469 45 -729 8 -228 9 -238 40 -329 59 -175 181 -380 239
-402 107 -42 183 -97 335 -239 l79 -74 46 12 c150 40 225 196 149 311 -31 47
-112 107 -259 191 -127 72 -192 138 -242 243 -61 129 -71 188 -69 397 2 190
15 365 34 457 19 97 76 148 175 159 47 5 58 1 255 -103 178 -93 217 -119 291
-186 346 -315 651 -468 1266 -633 l143 -38 227 -272 c125 -150 231 -268 235
-264 5 4 204 385 443 846 371 718 431 840 416 846 -9 4 -340 68 -736 142 -395
74 -720 137 -723 140 -3 3 1123 1543 1209 1653 11 14 -11 56 -145 283 -107
180 -224 353 -281 417 -56 62 -124 109 -187 127 -26 8 -78 37 -117 65 l-69 50
-6 88 c-6 98 -41 210 -78 249 -34 36 -66 31 -114 -20 -41 -42 -59 -81 -85
-175 -10 -36 -14 -41 -25 -30 -7 8 -21 39 -30 69 -22 67 -74 173 -109 219
l-25 34 -9 -24z"/>
<path d="M5175 6810 c-105 -142 -372 -503 -1518 -2050 l-515 -695 31 -7 c29
-7 542 -91 932 -153 83 -13 234 -38 338 -54 103 -17 190 -31 192 -31 3 0 5 -7
5 -16 0 -13 -212 -426 -425 -829 -38 -72 -160 -304 -325 -620 -117 -225 -204
-393 -254 -493 -29 -56 -55 -100 -59 -97 -4 3 -5 2 -2 -1 4 -6 -48 -108 -195
-384 -37 -69 -129 -242 -205 -385 -76 -143 -152 -287 -170 -320 -18 -33 -71
-135 -119 -227 -48 -92 -92 -170 -97 -174 -5 -3 -7 -10 -4 -15 4 -5 2 -9 -3
-9 -6 0 -13 -8 -16 -17 -6 -15 -5 -15 13 1 11 10 18 22 16 27 -3 4 8 17 25 29
16 12 29 25 27 29 -2 8 129 166 649 786 88 105 420 500 737 878 l577 688 0
1064 c0 1004 -1 1064 -17 1069 -10 2 -53 10 -95 17 -43 6 -78 16 -78 20 0 8
539 1711 630 1994 22 65 38 120 37 122 -2 1 -52 -65 -112 -147z"/>
<path d="M4855 4818 c-3 -7 -4 -598 -3 -1313 l3 -1300 335 -3 c184 -1 345 0
358 3 l22 5 -2 1308 -3 1307 -353 3 c-277 2 -354 0 -357 -10z"/>
<path d="M5965 4818 c-3 -7 -4 -598 -3 -1313 l3 -1300 990 0 990 0 0 245 0
245 -625 3 c-343 1 -628 6 -633 11 -12 12 -11 541 1 553 6 6 229 10 583 11
l574 2 0 245 0 245 -576 3 c-446 2 -579 5 -585 15 -5 6 -8 132 -6 280 l3 267
635 0 634 0 -2 248 -3 247 -988 3 c-785 2 -989 0 -992 -10z"/>
<path d="M8375 4818 c-3 -7 -4 -598 -3 -1313 l3 -1300 990 0 990 0 3 247 2
248 -632 2 -633 3 -3 278 c-2 217 0 279 10 282 7 3 270 6 583 7 l570 3 3 247
2 248 -582 2 -583 3 -3 278 -2 277 635 0 635 0 -2 248 -3 247 -988 3 c-785 2
-989 0 -992 -10z"/>
<path d="M10785 4818 c-3 -7 -4 -598 -3 -1313 l3 -1300 993 -3 992 -2 0 250 0
250 -632 2 -633 3 0 280 0 280 580 5 580 5 3 248 c2 194 0 247 -10 247 -7 0
-265 0 -573 0 -308 0 -566 4 -573 8 -9 7 -12 69 -10 278 l3 269 633 3 632 2
-2 248 -3 247 -988 3 c-785 2 -989 0 -992 -10z"/>
<path d="M5928 2061 c-20 -4 -55 -19 -76 -34 -124 -82 -124 -323 1 -405 52
-34 161 -43 222 -18 37 16 41 16 51 1 7 -10 23 -15 36 -13 22 3 23 6 26 126
l3 122 -101 0 -100 0 0 -35 0 -35 50 0 50 0 0 -36 c0 -31 -4 -37 -35 -50 -41
-17 -95 -18 -128 -3 -87 40 -89 248 -2 287 61 28 136 7 155 -44 8 -21 16 -24
56 -24 l47 0 -7 31 c-18 93 -132 152 -248 130z"/>
<path d="M7455 2059 c-96 -22 -158 -115 -158 -233 0 -153 77 -235 221 -236 34
0 79 7 99 15 32 14 37 14 47 -1 7 -9 22 -14 37 -12 24 3 24 4 27 126 l3 122
-101 0 -100 0 0 -35 0 -35 50 0 c48 0 50 -1 50 -28 0 -40 -31 -64 -88 -70 -95
-9 -145 44 -146 154 0 100 44 154 127 154 49 0 73 -13 92 -50 13 -26 21 -30
55 -30 21 0 42 5 45 10 11 18 -33 94 -67 117 -31 21 -106 43 -138 42 -8 -1
-33 -5 -55 -10z"/>
<path d="M8105 2056 c-54 -15 -104 -62 -106 -99 -4 -93 23 -125 133 -157 99
-29 125 -40 138 -56 33 -38 -41 -92 -109 -79 -41 8 -69 29 -82 63 -7 18 -16
22 -55 22 l-47 0 6 -35 c13 -81 82 -125 195 -125 131 0 192 44 192 138 0 83
-25 102 -197 152 -86 25 -103 49 -59 87 43 37 123 24 144 -22 10 -22 18 -25
62 -25 27 0 50 3 50 7 0 4 -9 26 -21 49 -34 72 -143 107 -244 80z"/>
<path d="M4924 2046 c-3 -8 -4 -27 -2 -43 l3 -28 109 -5 108 -5 -73 -90 c-40
-49 -95 -116 -121 -149 -42 -50 -49 -64 -46 -95 l3 -36 185 0 185 0 0 40 0 40
-124 5 -123 5 121 148 c113 137 122 151 119 185 l-3 37 -168 3 c-138 2 -168 0
-173 -12z"/>
<path d="M5377 1837 c-43 -123 -77 -229 -77 -235 0 -7 17 -12 44 -12 l45 0 17
55 18 56 85 -3 84 -3 17 -50 c16 -47 19 -50 54 -53 68 -6 68 -5 14 145 -27 76
-64 179 -81 228 l-32 90 -56 3 -56 3 -76 -224z m160 40 c12 -39 23 -78 23 -84
0 -9 -18 -13 -55 -13 -30 0 -55 3 -55 6 0 18 53 174 58 169 3 -3 16 -38 29
-78z"/>
<path d="M6321 1853 c-40 -114 -75 -220 -78 -235 -5 -27 -4 -28 35 -28 46 0
56 9 72 68 l11 43 86 -3 86 -3 17 -50 c17 -50 17 -50 63 -53 34 -2 47 1 47 10
0 11 -48 151 -144 418 -12 34 -15 35 -68 38 l-55 3 -72 -208z m154 27 c14 -40
25 -79 25 -87 0 -9 -16 -13 -55 -13 -30 0 -55 3 -55 6 0 14 53 174 56 171 2
-2 15 -37 29 -77z"/>
<path d="M6702 2018 l3 -43 106 -5 107 -5 -119 -145 c-111 -135 -119 -148
-119 -188 l0 -42 183 2 182 3 3 42 3 42 -124 3 -124 3 119 144 c110 135 118
148 118 188 l0 43 -171 0 -170 0 3 -42z"/>
<path d="M7120 1825 l0 -236 48 3 47 3 0 230 0 230 -47 3 -48 3 0 -236z"/>
<path d="M9260 1986 c0 -68 -9 -92 -24 -67 -3 4 -22 11 -43 14 -90 15 -163
-61 -163 -169 0 -114 44 -174 129 -174 26 0 56 7 69 16 21 15 24 15 36 -1 8
-12 23 -16 51 -13 l40 3 0 230 0 230 -47 3 -48 3 0 -75z m-19 -136 c16 -9 19
-22 19 -77 0 -77 -23 -113 -71 -113 -40 0 -59 33 -59 100 0 69 19 100 61 100
17 0 39 -5 50 -10z"/>
<path d="M10624 2047 c-2 -7 -3 -111 -2 -232 l3 -220 125 0 c141 1 176 12 210
68 34 56 17 147 -30 162 -26 8 -25 17 5 45 58 54 17 160 -70 180 -63 15 -235
13 -241 -3z m226 -87 c23 -23 24 -33 10 -61 -9 -16 -22 -19 -75 -19 l-65 0 0
50 0 50 55 0 c42 0 60 -5 75 -20z m10 -190 c23 -23 25 -49 6 -75 -10 -14 -30
-20 -80 -23 l-66 -4 0 61 0 61 60 0 c47 0 64 -4 80 -20z"/>
<path d="M12440 1825 l0 -236 48 3 47 3 3 117 c2 112 4 119 27 134 13 8 36 14
52 12 l28 -3 5 -130 5 -130 39 -3 c21 -2 43 1 48 6 6 6 10 66 9 139 -2 148
-11 169 -79 191 -36 12 -45 11 -86 -7 l-45 -20 -3 77 -3 77 -47 3 -48 3 0
-236z"/>
<path d="M8450 1970 c0 -33 -3 -40 -20 -40 -29 0 -29 -69 -1 -77 17 -4 20 -16
23 -115 3 -101 5 -111 27 -129 16 -13 39 -19 77 -19 l54 0 0 34 c0 30 -3 35
-27 38 l-28 3 -3 92 c-3 89 -2 92 20 95 19 2 24 10 26 41 3 34 1 37 -22 37
-24 0 -26 4 -26 40 l0 40 -50 0 -50 0 0 -40z"/>
<path d="M10220 1971 c0 -30 -4 -40 -20 -44 -15 -4 -20 -14 -20 -37 0 -23 5
-33 20 -37 18 -5 20 -14 20 -82 1 -93 13 -151 36 -168 10 -7 42 -13 71 -13
l53 0 0 34 c0 30 -3 35 -27 38 l-28 3 -3 92 -3 92 28 3 c25 3 28 7 28 38 0 31
-3 35 -27 38 -25 3 -28 7 -28 43 l0 39 -50 0 -50 0 0 -39z"/>
<path d="M9543 1931 c-51 -13 -83 -39 -104 -84 -40 -88 -10 -204 61 -239 42
-22 137 -24 183 -4 31 13 67 53 67 76 0 19 -79 11 -100 -10 -23 -23 -77 -27
-103 -7 -9 6 -20 27 -23 45 l-6 32 122 0 123 0 -5 51 c-6 56 -30 95 -74 121
-36 20 -99 29 -141 19z m97 -71 c11 -11 20 -29 20 -40 0 -18 -7 -20 -70 -20
-78 0 -85 8 -49 54 25 32 70 35 99 6z"/>
<path d="M9980 1929 c-13 -6 -32 -17 -41 -25 -15 -13 -17 -13 -22 6 -5 18 -12
21 -49 18 l-43 -3 0 -165 0 -165 48 -3 47 -3 0 120 c0 113 1 121 22 135 12 9
35 16 50 16 40 0 48 -29 48 -161 l0 -110 48 3 47 3 0 135 c0 171 -8 188 -100
204 -16 3 -41 0 -55 -5z"/>
<path d="M11195 1925 c-16 -9 -36 -23 -42 -32 -11 -15 -13 -14 -13 10 0 25 -3
27 -45 27 l-45 0 0 -170 0 -170 45 0 45 0 0 110 c0 99 2 111 22 130 14 13 35
20 60 20 l39 0 -3 42 c-3 49 -17 56 -63 33z"/>
<path d="M11395 1929 c-45 -11 -85 -44 -85 -71 0 -27 69 -25 93 2 20 23 78 27
96 7 6 -8 12 -24 13 -38 3 -22 -1 -24 -63 -30 -73 -8 -120 -27 -143 -61 -31
-43 -14 -117 31 -137 32 -15 115 -14 149 1 22 10 28 10 32 0 2 -7 22 -12 48
-12 l44 0 0 139 c0 165 -8 182 -91 200 -57 13 -69 13 -124 0z m123 -216 c4
-36 -26 -63 -69 -63 -44 0 -59 10 -59 40 0 41 34 60 100 56 20 -1 26 -7 28
-33z"/>
<path d="M11857 1930 c-16 -5 -35 -14 -44 -21 -12 -11 -17 -10 -24 4 -7 12
-23 17 -55 17 l-44 0 2 -167 3 -168 45 0 45 0 3 115 c2 103 4 117 23 133 29
23 76 22 89 -2 5 -11 10 -72 10 -135 l0 -116 45 0 45 0 0 135 c0 175 -7 192
-90 208 -14 3 -38 1 -53 -3z"/>
<path d="M12191 1930 c-77 -18 -121 -80 -121 -170 0 -110 58 -170 164 -170 73
0 120 25 141 73 15 37 7 47 -39 47 -18 0 -35 -9 -48 -25 -24 -31 -70 -33 -98
-5 -25 25 -28 124 -4 158 20 29 74 30 99 2 13 -14 31 -20 61 -20 l43 0 -10 29
c-14 39 -46 67 -94 80 -45 12 -46 12 -94 1z"/>
<path d="M8657 1923 c-11 -10 -8 -224 4 -266 14 -52 46 -71 114 -65 32 3 63
12 74 22 17 16 19 16 24 -4 5 -18 12 -21 49 -18 l43 3 0 165 0 165 -47 3 -48
3 0 -114 c0 -106 -2 -115 -23 -135 -29 -28 -73 -29 -87 -3 -5 11 -10 72 -10
135 l0 116 -43 0 c-24 0 -47 -3 -50 -7z"/>
</g>
</svg>
